<svg width="16" height="16" viewBox="0 0 16 16" fill="none" xmlns="http://www.w3.org/2000/svg">
<g clip-path="url(#clip0)">
<path d="M3.35064 10.1296C3.35064 11.0517 2.5974 11.805 1.67532 11.805C0.753244 11.805 0 11.0517 0 10.1296C0 9.20752 0.753244 8.45428 1.67532 8.45428H3.35064V10.1296Z" fill="white" />
<path d="M4.19489 10.1296C4.19489 9.20752 4.94813 8.45428 5.8702 8.45428C6.79228 8.45428 7.54552 9.20752 7.54552 10.1296V14.3244C7.54552 15.2465 6.79228 15.9998 5.8702 15.9998C4.94813 15.9998 4.19489 15.2465 4.19489 14.3244V10.1296Z" fill="white" />
<path d="M5.8702 3.35065C4.94813 3.35065 4.19489 2.5974 4.19489 1.67532C4.19489 0.753248 4.94813 0 5.8702 0C6.79228 0 7.54552 0.753248 7.54552 1.67532V3.35065H5.8702Z" fill="white" />
<path d="M5.87012 4.19452C6.7922 4.19452 7.54544 4.94776 7.54544 5.86984C7.54544 6.79192 6.7922 7.54516 5.87012 7.54516H1.67532C0.753248 7.54516 0 6.79192 0 5.86984C0 4.94776 0.753248 4.19452 1.67532 4.19452H5.87012Z" fill="white" />
<path d="M12.6496 5.86984C12.6496 4.94776 13.4028 4.19452 14.3249 4.19452C15.247 4.19452 16.0002 4.94776 16.0002 5.86984C16.0002 6.79192 15.247 7.54516 14.3249 7.54516H12.6496V5.86984Z" fill="white" />
<path d="M11.8053 5.87012C11.8053 6.7922 11.0521 7.54544 10.13 7.54544C9.20789 7.54544 8.45465 6.7922 8.45465 5.87012V1.67532C8.45465 0.753248 9.20789 0 10.13 0C11.0521 0 11.8053 0.753248 11.8053 1.67532V5.87012Z" fill="white" />
<path d="M10.13 12.6492C11.0521 12.6492 11.8053 13.4025 11.8053 14.3246C11.8053 15.2466 11.0521 15.9999 10.13 15.9999C9.20789 15.9999 8.45465 15.2466 8.45465 14.3246V12.6492H10.13Z" fill="white" />
<path d="M10.13 11.8049C9.20789 11.8049 8.45465 11.0517 8.45465 10.1296C8.45465 9.20752 9.20789 8.45428 10.13 8.45428H14.3248C15.2469 8.45428 16.0001 9.20752 16.0001 10.1296C16.0001 11.0517 15.2469 11.8049 14.3248 11.8049H10.13Z" fill="white" />
</g>
<defs>
<clipPath id="clip0">
<rect width="16" height="16" fill="white"/>
</clipPath>
</defs>
</svg>
