<svg width="20" height="16" viewBox="0 0 20 16" fill="none" xmlns="http://www.w3.org/2000/svg">
<path d="M6.18112 16C13.6063 16 17.6693 9.84252 17.6693 4.51184C17.6693 4.3386 17.6693 4.16536 17.6614 3.99212C18.4488 3.4252 19.1339 2.70866 19.6772 1.89764C18.9528 2.22047 18.1732 2.43307 17.3543 2.53543C18.189 2.03937 18.8268 1.24409 19.1339 0.299212C18.3543 0.763776 17.4882 1.09449 16.5669 1.27559C15.8268 0.488188 14.7795 0 13.622 0C11.3937 0 9.58268 1.81102 9.58268 4.03936C9.58268 4.35432 9.62204 4.66144 9.68504 4.96064C6.33072 4.79528 3.35433 3.1811 1.3622 0.740156C1.01575 1.33858 0.818896 2.0315 0.818896 2.77165C0.818896 4.17324 1.53544 5.40948 2.61417 6.13388C1.95276 6.11024 1.33071 5.92912 0.7874 5.62992C0.7874 5.64568 0.7874 5.66144 0.7874 5.68504C0.7874 7.63776 2.1811 9.2756 4.02364 9.64568C3.68504 9.74016 3.33071 9.78744 2.96063 9.78744C2.70079 9.78744 2.44882 9.76376 2.20472 9.71652C2.71653 11.3228 4.2126 12.4882 5.97636 12.5197C4.59052 13.6063 2.8504 14.252 0.960632 14.252C0.637796 14.252 0.31496 14.2362 0 14.1968C1.77953 15.3307 3.90551 16 6.18112 16Z" fill="white" />
</svg>
